<svg width="178" height="40" viewBox="0 0 178 40" fill="none" xmlns="http://www.w3.org/2000/svg">
<g clip-path="url(#clip0_474_2430)">
<mask id="path-1-inside-1_474_2430" fill="white">
<path fill-rule="evenodd" clip-rule="evenodd" d="M29.3105 17.7843L2.69114 17.7842V28.6423C2.54431 29.4087 2.84832 30.2398 3.60316 30.7378L13.4606 37.2414C14.9858 38.2477 17.0135 38.2477 18.5387 37.2414L28.3961 30.7378C29.1469 30.2425 29.4517 29.4177 29.3105 28.6549V17.7843Z"/>
</mask>
<path fill-rule="evenodd" clip-rule="evenodd" d="M29.3105 17.7843L2.69114 17.7842V28.6423C2.54431 29.4087 2.84832 30.2398 3.60316 30.7378L13.4606 37.2414C14.9858 38.2477 17.0135 38.2477 18.5387 37.2414L28.3961 30.7378C29.1469 30.2425 29.4517 29.4177 29.3105 28.6549V17.7843Z" fill="#EBF5FF"/>
<path d="M2.69114 17.7842L2.69115 16.2842L1.19114 16.2842V17.7842H2.69114ZM29.3105 17.7843H30.8105V16.2843L29.3105 16.2843L29.3105 17.7843ZM2.69114 28.6423L4.16434 28.9246L4.19114 28.7847V28.6423H2.69114ZM3.60316 30.7378L4.42922 29.4858H4.42922L3.60316 30.7378ZM13.4606 37.2414L14.2866 35.9894L13.4606 37.2414ZM18.5387 37.2414L17.7127 35.9894L18.5387 37.2414ZM28.3961 30.7378L27.5701 29.4858L28.3961 30.7378ZM29.3105 28.6549H27.8105V28.7925L27.8356 28.9278L29.3105 28.6549ZM2.69113 19.2842L29.3105 19.2843L29.3105 16.2843L2.69115 16.2842L2.69113 19.2842ZM4.19114 28.6423V17.7842H1.19114V28.6423H4.19114ZM4.42922 29.4858C4.19092 29.3286 4.12912 29.1084 4.16434 28.9246L1.21794 28.3601C0.959492 29.7089 1.50571 31.1511 2.7771 31.9899L4.42922 29.4858ZM14.2866 35.9894L4.42922 29.4858L2.7771 31.9899L12.6345 38.4935L14.2866 35.9894ZM17.7127 35.9894C16.6886 36.665 15.3107 36.665 14.2866 35.9894L12.6345 38.4935C14.6608 39.8303 17.3385 39.8303 19.3648 38.4935L17.7127 35.9894ZM27.5701 29.4858L17.7127 35.9894L19.3648 38.4935L29.2222 31.9899L27.5701 29.4858ZM27.8356 28.9278C27.8694 29.1107 27.8073 29.3293 27.5701 29.4858L29.2222 31.9899C30.4865 31.1558 31.0339 29.7248 30.7855 28.382L27.8356 28.9278ZM27.8105 17.7843V28.6549H30.8105V17.7843H27.8105Z" fill="#0A0806" mask="url(#path-1-inside-1_474_2430)"/>
<mask id="path-3-inside-2_474_2430" fill="white">
<path fill-rule="evenodd" clip-rule="evenodd" d="M29.3108 12.1598L2.69137 12.1597V23.0169C2.54399 23.7836 2.84792 24.6153 3.60316 25.1136L13.4606 31.6172C14.9858 32.6235 17.0135 32.6235 18.5387 31.6172L28.3961 25.1136C29.1465 24.6186 29.4513 23.7944 29.3108 23.0319V12.1598Z"/>
</mask>
<path fill-rule="evenodd" clip-rule="evenodd" d="M29.3108 12.1598L2.69137 12.1597V23.0169C2.54399 23.7836 2.84792 24.6153 3.60316 25.1136L13.4606 31.6172C14.9858 32.6235 17.0135 32.6235 18.5387 31.6172L28.3961 25.1136C29.1465 24.6186 29.4513 23.7944 29.3108 23.0319V12.1598Z" fill="#DDE2E6"/>
<path d="M2.69137 12.1597L2.69138 10.6597L1.19137 10.6597V12.1597H2.69137ZM29.3108 12.1598H30.8108V10.6598L29.3108 10.6598L29.3108 12.1598ZM2.69137 23.0169L4.1644 23.3001L4.19137 23.1598V23.0169H2.69137ZM3.60316 25.1136L4.42922 23.8616H4.42922L3.60316 25.1136ZM13.4606 31.6172L14.2866 30.3652L13.4606 31.6172ZM18.5387 31.6172L17.7127 30.3652L18.5387 31.6172ZM28.3961 25.1136L27.5701 23.8616L28.3961 25.1136ZM29.3108 23.0319H27.8108V23.169L27.8356 23.3039L29.3108 23.0319ZM2.69136 13.6597L29.3108 13.6598L29.3108 10.6598L2.69138 10.6597L2.69136 13.6597ZM4.19137 23.0169V12.1597H1.19137V23.0169H4.19137ZM4.42922 23.8616C4.19081 23.7043 4.12905 23.484 4.1644 23.3001L1.21834 22.7337C0.958927 24.0832 1.50503 25.5264 2.7771 26.3657L4.42922 23.8616ZM14.2866 30.3652L4.42922 23.8616L2.7771 26.3657L12.6345 32.8693L14.2866 30.3652ZM17.7127 30.3652C16.6886 31.0408 15.3107 31.0408 14.2866 30.3652L12.6345 32.8693C14.6608 34.2061 17.3385 34.2061 19.3648 32.8693L17.7127 30.3652ZM27.5701 23.8616L17.7127 30.3652L19.3648 32.8693L29.2222 26.3657L27.5701 23.8616ZM27.8356 23.3039C27.8693 23.4867 27.8072 23.7052 27.5701 23.8616L29.2222 26.3657C30.4858 25.532 31.0333 24.1022 30.7859 22.76L27.8356 23.3039ZM27.8108 12.1598V23.0319H30.8108V12.1598H27.8108Z" fill="#0A0806" mask="url(#path-3-inside-2_474_2430)"/>
<mask id="path-5-inside-3_474_2430" fill="white">
<path fill-rule="evenodd" clip-rule="evenodd" d="M18.5387 9.47247C17.0135 8.46621 14.9858 8.46621 13.4606 9.47247L9.36476 12.1747L2.69106 12.1747L2.69106 17.3163C2.54442 18.0826 2.84845 18.9135 3.60316 19.4114L13.4606 25.915C14.9858 26.9213 17.0135 26.9213 18.5387 25.915L28.3961 19.4114C29.147 18.916 29.4518 18.091 29.3105 17.3281V12.1749L22.6347 12.1748L18.5387 9.47247Z"/>
</mask>
<path fill-rule="evenodd" clip-rule="evenodd" d="M18.5387 9.47247C17.0135 8.46621 14.9858 8.46621 13.4606 9.47247L9.36476 12.1747L2.69106 12.1747L2.69106 17.3163C2.54442 18.0826 2.84845 18.9135 3.60316 19.4114L13.4606 25.915C14.9858 26.9213 17.0135 26.9213 18.5387 25.915L28.3961 19.4114C29.147 18.916 29.4518 18.091 29.3105 17.3281V12.1749L22.6347 12.1748L18.5387 9.47247Z" fill="white"/>
<path d="M13.4606 9.47247L12.6345 8.22042V8.22042L13.4606 9.47247ZM18.5387 9.47247L17.7127 10.7245L18.5387 9.47247ZM9.36476 12.1747L9.36475 13.6747L9.815 13.6748L10.1908 13.4268L9.36476 12.1747ZM2.69106 12.1747L2.69107 10.6747L1.19106 10.6747V12.1747L2.69106 12.1747ZM2.69106 17.3163L4.16432 17.5983L4.19106 17.4586V17.3163H2.69106ZM3.60316 19.4114L4.42922 18.1594H4.42922L3.60316 19.4114ZM13.4606 25.915L14.2866 24.663L13.4606 25.915ZM18.5387 25.915L17.7127 24.663L18.5387 25.915ZM28.3961 19.4114L29.2222 20.6635V20.6635L28.3961 19.4114ZM29.3105 17.3281H27.8105V17.4658L27.8355 17.6013L29.3105 17.3281ZM29.3105 12.1749H30.8105V10.6749L29.3105 10.6749L29.3105 12.1749ZM22.6347 12.1748L21.8086 13.4269L22.1844 13.6748L22.6346 13.6748L22.6347 12.1748ZM14.2866 10.7245C15.3107 10.0489 16.6886 10.0489 17.7127 10.7245L19.3648 8.22042C17.3385 6.88356 14.6608 6.88356 12.6345 8.22042L14.2866 10.7245ZM10.1908 13.4268L14.2866 10.7245L12.6345 8.22042L8.5387 10.9227L10.1908 13.4268ZM2.69105 13.6747L9.36475 13.6747L9.36477 10.6747L2.69107 10.6747L2.69105 13.6747ZM4.19106 17.3163L4.19106 12.1747L1.19106 12.1747L1.19106 17.3163H4.19106ZM4.42922 18.1594C4.19095 18.0022 4.12915 17.7821 4.16432 17.5983L1.2178 17.0344C0.959684 18.3831 1.50595 19.8248 2.7771 20.6635L4.42922 18.1594ZM14.2866 24.663L4.42922 18.1594L2.7771 20.6635L12.6345 27.1671L14.2866 24.663ZM17.7127 24.663C16.6886 25.3386 15.3107 25.3386 14.2866 24.663L12.6345 27.1671C14.6608 28.5039 17.3385 28.5039 19.3648 27.1671L17.7127 24.663ZM27.5701 18.1594L17.7127 24.663L19.3648 27.1671L29.2222 20.6635L27.5701 18.1594ZM27.8355 17.6013C27.8694 17.7842 27.8073 18.0029 27.5701 18.1594L29.2222 20.6635C30.4867 19.8292 31.0341 18.3979 30.7854 17.0549L27.8355 17.6013ZM27.8105 12.1749V17.3281H30.8105V12.1749H27.8105ZM22.6346 13.6748L29.3104 13.6749L29.3105 10.6749L22.6347 10.6748L22.6346 13.6748ZM17.7127 10.7245L21.8086 13.4269L23.4607 10.9228L19.3648 8.22042L17.7127 10.7245Z" fill="#0A0806" mask="url(#path-5-inside-3_474_2430)"/>
<path d="M13.9026 4.54814C15.1626 3.71681 16.8379 3.71681 18.0979 4.54814L27.9553 11.0517C28.7798 11.5956 28.7798 12.7487 27.9553 13.2927L18.0979 19.7962C16.8379 20.6276 15.1626 20.6276 13.9026 19.7962L4.04515 13.2927C3.22073 12.7487 3.22073 11.5956 4.04515 11.0517L13.9026 4.54814Z" fill="white" stroke="#0A0806" stroke-width="1.5"/>
<ellipse cx="19.1168" cy="21.9251" rx="1" ry="0.5" transform="rotate(-29.2524 19.1168 21.9251)" fill="#0A0806"/>
<ellipse cx="19.1168" cy="27.575" rx="1" ry="0.5" transform="rotate(-29.2524 19.1168 27.575)" fill="#0A0806"/>
<ellipse cx="19.1168" cy="33.2249" rx="1" ry="0.5" transform="rotate(-29.2524 19.1168 33.2249)" fill="#0A0806"/>
</g>
<path d="M47.272 29.288C45.8 29.288 44.552 29.04 43.528 28.544C42.504 28.032 41.632 27.376 40.912 26.576L43.312 24.152C44.448 25.432 45.848 26.072 47.512 26.072C48.408 26.072 49.072 25.888 49.504 25.52C49.936 25.152 50.152 24.664 50.152 24.056C50.152 23.592 50.024 23.208 49.768 22.904C49.512 22.584 48.992 22.368 48.208 22.256L46.552 22.04C44.776 21.816 43.472 21.28 42.64 20.432C41.824 19.584 41.416 18.456 41.416 17.048C41.416 16.296 41.56 15.608 41.848 14.984C42.136 14.36 42.544 13.824 43.072 13.376C43.616 12.928 44.272 12.584 45.04 12.344C45.824 12.088 46.712 11.96 47.704 11.96C48.968 11.96 50.08 12.16 51.04 12.56C52 12.96 52.824 13.544 53.512 14.312L51.088 16.76C50.688 16.296 50.2 15.92 49.624 15.632C49.064 15.328 48.352 15.176 47.488 15.176C46.672 15.176 46.064 15.32 45.664 15.608C45.264 15.896 45.064 16.296 45.064 16.808C45.064 17.384 45.216 17.8 45.52 18.056C45.84 18.312 46.352 18.496 47.056 18.608L48.712 18.872C50.44 19.144 51.72 19.68 52.552 20.48C53.384 21.264 53.8 22.384 53.8 23.84C53.8 24.64 53.656 25.376 53.368 26.048C53.08 26.72 52.656 27.296 52.096 27.776C51.552 28.256 50.872 28.632 50.056 28.904C49.24 29.16 48.312 29.288 47.272 29.288ZM56.8246 29V12.248H68.2246V15.488H60.4726V18.92H67.1206V22.136H60.4726V25.76H68.2246V29H56.8246ZM75.0507 29H71.4027V12.248H79.3467C80.1147 12.248 80.8107 12.376 81.4347 12.632C82.0587 12.888 82.5867 13.256 83.0187 13.736C83.4667 14.2 83.8107 14.76 84.0507 15.416C84.2907 16.072 84.4107 16.8 84.4107 17.6C84.4107 18.736 84.1547 19.728 83.6427 20.576C83.1467 21.424 82.3867 22.04 81.3627 22.424L84.6507 29H80.5947L77.6667 22.856H75.0507V29ZM78.8907 19.784C79.4347 19.784 79.8587 19.648 80.1627 19.376C80.4827 19.088 80.6427 18.672 80.6427 18.128V17.072C80.6427 16.528 80.4827 16.12 80.1627 15.848C79.8587 15.56 79.4347 15.416 78.8907 15.416H75.0507V19.784H78.8907ZM90.736 29L85.336 12.248H89.032L91.528 20.288L92.848 25.544H92.92L94.192 20.288L96.688 12.248H100.264L94.816 29H90.736ZM102.457 29V12.248H113.857V15.488H106.105V18.92H112.753V22.136H106.105V25.76H113.857V29H102.457ZM120.684 29H117.036V12.248H124.98C125.748 12.248 126.444 12.376 127.068 12.632C127.692 12.888 128.22 13.256 128.652 13.736C129.1 14.2 129.444 14.76 129.684 15.416C129.924 16.072 130.044 16.8 130.044 17.6C130.044 18.736 129.788 19.728 129.276 20.576C128.78 21.424 128.02 22.04 126.996 22.424L130.284 29H126.228L123.3 22.856H120.684V29ZM124.524 19.784C125.068 19.784 125.492 19.648 125.796 19.376C126.116 19.088 126.276 18.672 126.276 18.128V17.072C126.276 16.528 126.116 16.12 125.796 15.848C125.492 15.56 125.068 15.416 124.524 15.416H120.684V19.784H124.524ZM138.231 29V26.096H140.391V15.152H138.231V12.248H146.199V15.152H144.039V26.096H146.199V29H138.231ZM156.007 29.288C154.871 29.288 153.847 29.112 152.935 28.76C152.023 28.392 151.247 27.856 150.607 27.152C149.967 26.432 149.471 25.544 149.119 24.488C148.767 23.416 148.591 22.168 148.591 20.744C148.591 19.336 148.767 18.088 149.119 17C149.471 15.896 149.967 14.976 150.607 14.24C151.247 13.488 152.023 12.92 152.935 12.536C153.847 12.152 154.871 11.96 156.007 11.96C157.559 11.96 158.839 12.28 159.847 12.92C160.855 13.544 161.663 14.536 162.271 15.896L159.127 17.528C158.903 16.824 158.551 16.264 158.071 15.848C157.607 15.416 156.919 15.2 156.007 15.2C154.935 15.2 154.071 15.552 153.415 16.256C152.775 16.944 152.455 17.952 152.455 19.28V21.968C152.455 23.296 152.775 24.312 153.415 25.016C154.071 25.704 154.935 26.048 156.007 26.048C156.903 26.048 157.615 25.808 158.143 25.328C158.687 24.832 159.087 24.24 159.343 23.552L162.319 25.28C161.695 26.56 160.871 27.552 159.847 28.256C158.839 28.944 157.559 29.288 156.007 29.288ZM171.855 15.488V29H168.207V15.488H163.671V12.248H176.391V15.488H171.855Z" fill="white"/>
<defs>
<clipPath id="clip0_474_2430">
<rect width="32" height="40" fill="white"/>
</clipPath>
</defs>
</svg>
