<svg width="32" height="40" viewBox="0 0 32 40" fill="none" xmlns="http://www.w3.org/2000/svg">
<g clip-path="url(#clip0_827_8946)">
<mask id="path-1-inside-1_827_8946" fill="white">
<path fill-rule="evenodd" clip-rule="evenodd" d="M29.3105 17.7843L2.69114 17.7842V28.6423C2.54431 29.4087 2.84832 30.2398 3.60316 30.7378L13.4606 37.2414C14.9858 38.2477 17.0135 38.2477 18.5387 37.2414L28.3961 30.7378C29.1469 30.2425 29.4517 29.4177 29.3105 28.6549V17.7843Z"/>
</mask>
<path fill-rule="evenodd" clip-rule="evenodd" d="M29.3105 17.7843L2.69114 17.7842V28.6423C2.54431 29.4087 2.84832 30.2398 3.60316 30.7378L13.4606 37.2414C14.9858 38.2477 17.0135 38.2477 18.5387 37.2414L28.3961 30.7378C29.1469 30.2425 29.4517 29.4177 29.3105 28.6549V17.7843Z" fill="#EBF5FF"/>
<path d="M2.69114 17.7842L2.69115 16.2842L1.19114 16.2842V17.7842H2.69114ZM29.3105 17.7843H30.8105V16.2843L29.3105 16.2843L29.3105 17.7843ZM2.69114 28.6423L4.16434 28.9246L4.19114 28.7847V28.6423H2.69114ZM3.60316 30.7378L4.42922 29.4858H4.42922L3.60316 30.7378ZM13.4606 37.2414L14.2866 35.9894L13.4606 37.2414ZM18.5387 37.2414L17.7127 35.9894L18.5387 37.2414ZM28.3961 30.7378L27.5701 29.4858L28.3961 30.7378ZM29.3105 28.6549H27.8105V28.7925L27.8356 28.9278L29.3105 28.6549ZM2.69113 19.2842L29.3105 19.2843L29.3105 16.2843L2.69115 16.2842L2.69113 19.2842ZM4.19114 28.6423V17.7842H1.19114V28.6423H4.19114ZM4.42922 29.4858C4.19092 29.3286 4.12912 29.1084 4.16434 28.9246L1.21794 28.3601C0.959492 29.7089 1.50571 31.1511 2.7771 31.9899L4.42922 29.4858ZM14.2866 35.9894L4.42922 29.4858L2.7771 31.9899L12.6345 38.4935L14.2866 35.9894ZM17.7127 35.9894C16.6886 36.665 15.3107 36.665 14.2866 35.9894L12.6345 38.4935C14.6608 39.8303 17.3385 39.8303 19.3648 38.4935L17.7127 35.9894ZM27.5701 29.4858L17.7127 35.9894L19.3648 38.4935L29.2222 31.9899L27.5701 29.4858ZM27.8356 28.9278C27.8694 29.1107 27.8073 29.3293 27.5701 29.4858L29.2222 31.9899C30.4865 31.1558 31.0339 29.7248 30.7855 28.382L27.8356 28.9278ZM27.8105 17.7843V28.6549H30.8105V17.7843H27.8105Z" fill="#0A0806" mask="url(#path-1-inside-1_827_8946)"/>
<mask id="path-3-inside-2_827_8946" fill="white">
<path fill-rule="evenodd" clip-rule="evenodd" d="M29.3108 12.1598L2.69137 12.1597V23.0169C2.54399 23.7836 2.84792 24.6153 3.60316 25.1136L13.4606 31.6172C14.9858 32.6235 17.0135 32.6235 18.5387 31.6172L28.3961 25.1136C29.1465 24.6186 29.4513 23.7944 29.3108 23.0319V12.1598Z"/>
</mask>
<path fill-rule="evenodd" clip-rule="evenodd" d="M29.3108 12.1598L2.69137 12.1597V23.0169C2.54399 23.7836 2.84792 24.6153 3.60316 25.1136L13.4606 31.6172C14.9858 32.6235 17.0135 32.6235 18.5387 31.6172L28.3961 25.1136C29.1465 24.6186 29.4513 23.7944 29.3108 23.0319V12.1598Z" fill="#DDE2E6"/>
<path d="M2.69137 12.1597L2.69138 10.6597L1.19137 10.6597V12.1597H2.69137ZM29.3108 12.1598H30.8108V10.6598L29.3108 10.6598L29.3108 12.1598ZM2.69137 23.0169L4.1644 23.3001L4.19137 23.1598V23.0169H2.69137ZM3.60316 25.1136L4.42922 23.8616H4.42922L3.60316 25.1136ZM13.4606 31.6172L14.2866 30.3652L13.4606 31.6172ZM18.5387 31.6172L17.7127 30.3652L18.5387 31.6172ZM28.3961 25.1136L27.5701 23.8616L28.3961 25.1136ZM29.3108 23.0319H27.8108V23.169L27.8356 23.3039L29.3108 23.0319ZM2.69136 13.6597L29.3108 13.6598L29.3108 10.6598L2.69138 10.6597L2.69136 13.6597ZM4.19137 23.0169V12.1597H1.19137V23.0169H4.19137ZM4.42922 23.8616C4.19081 23.7043 4.12905 23.484 4.1644 23.3001L1.21834 22.7337C0.958927 24.0832 1.50503 25.5264 2.7771 26.3657L4.42922 23.8616ZM14.2866 30.3652L4.42922 23.8616L2.7771 26.3657L12.6345 32.8693L14.2866 30.3652ZM17.7127 30.3652C16.6886 31.0408 15.3107 31.0408 14.2866 30.3652L12.6345 32.8693C14.6608 34.2061 17.3385 34.2061 19.3648 32.8693L17.7127 30.3652ZM27.5701 23.8616L17.7127 30.3652L19.3648 32.8693L29.2222 26.3657L27.5701 23.8616ZM27.8356 23.3039C27.8693 23.4867 27.8072 23.7052 27.5701 23.8616L29.2222 26.3657C30.4858 25.532 31.0333 24.1022 30.7859 22.76L27.8356 23.3039ZM27.8108 12.1598V23.0319H30.8108V12.1598H27.8108Z" fill="#0A0806" mask="url(#path-3-inside-2_827_8946)"/>
<mask id="path-5-inside-3_827_8946" fill="white">
<path fill-rule="evenodd" clip-rule="evenodd" d="M18.5387 9.47247C17.0135 8.46621 14.9858 8.46621 13.4606 9.47247L9.36476 12.1747L2.69106 12.1747L2.69106 17.3163C2.54442 18.0826 2.84845 18.9135 3.60316 19.4114L13.4606 25.915C14.9858 26.9213 17.0135 26.9213 18.5387 25.915L28.3961 19.4114C29.147 18.916 29.4518 18.091 29.3105 17.3281V12.1749L22.6347 12.1748L18.5387 9.47247Z"/>
</mask>
<path fill-rule="evenodd" clip-rule="evenodd" d="M18.5387 9.47247C17.0135 8.46621 14.9858 8.46621 13.4606 9.47247L9.36476 12.1747L2.69106 12.1747L2.69106 17.3163C2.54442 18.0826 2.84845 18.9135 3.60316 19.4114L13.4606 25.915C14.9858 26.9213 17.0135 26.9213 18.5387 25.915L28.3961 19.4114C29.147 18.916 29.4518 18.091 29.3105 17.3281V12.1749L22.6347 12.1748L18.5387 9.47247Z" fill="white"/>
<path d="M13.4606 9.47247L12.6345 8.22042V8.22042L13.4606 9.47247ZM18.5387 9.47247L17.7127 10.7245L18.5387 9.47247ZM9.36476 12.1747L9.36475 13.6747L9.815 13.6748L10.1908 13.4268L9.36476 12.1747ZM2.69106 12.1747L2.69107 10.6747L1.19106 10.6747V12.1747L2.69106 12.1747ZM2.69106 17.3163L4.16432 17.5983L4.19106 17.4586V17.3163H2.69106ZM3.60316 19.4114L4.42922 18.1594H4.42922L3.60316 19.4114ZM13.4606 25.915L14.2866 24.663L13.4606 25.915ZM18.5387 25.915L17.7127 24.663L18.5387 25.915ZM28.3961 19.4114L29.2222 20.6635V20.6635L28.3961 19.4114ZM29.3105 17.3281H27.8105V17.4658L27.8355 17.6013L29.3105 17.3281ZM29.3105 12.1749H30.8105V10.6749L29.3105 10.6749L29.3105 12.1749ZM22.6347 12.1748L21.8086 13.4269L22.1844 13.6748L22.6346 13.6748L22.6347 12.1748ZM14.2866 10.7245C15.3107 10.0489 16.6886 10.0489 17.7127 10.7245L19.3648 8.22042C17.3385 6.88356 14.6608 6.88356 12.6345 8.22042L14.2866 10.7245ZM10.1908 13.4268L14.2866 10.7245L12.6345 8.22042L8.5387 10.9227L10.1908 13.4268ZM2.69105 13.6747L9.36475 13.6747L9.36477 10.6747L2.69107 10.6747L2.69105 13.6747ZM4.19106 17.3163L4.19106 12.1747L1.19106 12.1747L1.19106 17.3163H4.19106ZM4.42922 18.1594C4.19095 18.0022 4.12915 17.7821 4.16432 17.5983L1.2178 17.0344C0.959684 18.3831 1.50595 19.8248 2.7771 20.6635L4.42922 18.1594ZM14.2866 24.663L4.42922 18.1594L2.7771 20.6635L12.6345 27.1671L14.2866 24.663ZM17.7127 24.663C16.6886 25.3386 15.3107 25.3386 14.2866 24.663L12.6345 27.1671C14.6608 28.5039 17.3385 28.5039 19.3648 27.1671L17.7127 24.663ZM27.5701 18.1594L17.7127 24.663L19.3648 27.1671L29.2222 20.6635L27.5701 18.1594ZM27.8355 17.6013C27.8694 17.7842 27.8073 18.0029 27.5701 18.1594L29.2222 20.6635C30.4867 19.8292 31.0341 18.3979 30.7854 17.0549L27.8355 17.6013ZM27.8105 12.1749V17.3281H30.8105V12.1749H27.8105ZM22.6346 13.6748L29.3104 13.6749L29.3105 10.6749L22.6347 10.6748L22.6346 13.6748ZM17.7127 10.7245L21.8086 13.4269L23.4607 10.9228L19.3648 8.22042L17.7127 10.7245Z" fill="#0A0806" mask="url(#path-5-inside-3_827_8946)"/>
<path d="M13.9026 4.54814C15.1626 3.71681 16.8379 3.71681 18.0979 4.54814L27.9553 11.0517C28.7798 11.5956 28.7798 12.7487 27.9553 13.2927L18.0979 19.7962C16.8379 20.6276 15.1626 20.6276 13.9026 19.7962L4.04515 13.2927C3.22073 12.7487 3.22073 11.5956 4.04515 11.0517L13.9026 4.54814Z" fill="white" stroke="#0A0806" stroke-width="1.5"/>
<ellipse cx="19.1168" cy="21.9251" rx="1" ry="0.5" transform="rotate(-29.2524 19.1168 21.9251)" fill="#0A0806"/>
<ellipse cx="19.1168" cy="27.575" rx="1" ry="0.5" transform="rotate(-29.2524 19.1168 27.575)" fill="#0A0806"/>
<ellipse cx="19.1168" cy="33.2249" rx="1" ry="0.5" transform="rotate(-29.2524 19.1168 33.2249)" fill="#0A0806"/>
</g>
<defs>
<clipPath id="clip0_827_8946">
<rect width="32" height="40" fill="white"/>
</clipPath>
</defs>
</svg>
